<svg xmlns="http://www.w3.org/2000/svg" viewBox="0 0 141.45 139.91"><defs><style>.cls-1{fill:#fa8603;stroke:#fa8603;stroke-miterlimit:10;stroke-width:3px;}</style></defs><g id="Object"><path class="cls-1" d="M42.33,66.07H16a2.21,2.21,0,0,0-2.2,2.21V126.4a2.21,2.21,0,0,0,2.2,2.21H42.33a2.21,2.21,0,0,0,2.2-2.21V68.28A2.21,2.21,0,0,0,42.33,66.07Zm-2.21,4.41V124.2H18.22V70.48Z"/><path class="cls-1" d="M85.42,38.76H59.11A2.21,2.21,0,0,0,56.9,41V126.4a2.21,2.21,0,0,0,2.21,2.21H85.42a2.21,2.21,0,0,0,2.21-2.21V41A2.21,2.21,0,0,0,85.42,38.76Zm-2.2,4.41v81H61.31v-81Z"/><path class="cls-1" d="M127.51,11.3H101.2A2.21,2.21,0,0,0,99,13.51V126.4a2.21,2.21,0,0,0,2.21,2.21h26.31a2.21,2.21,0,0,0,2.21-2.21V13.51A2.21,2.21,0,0,0,127.51,11.3ZM103.4,124.2V15.71h21.91V124.2Z"/><path class="cls-1" d="M71.4,15.54l-51,37.78h7.68a2.21,2.21,0,0,1,0,4.41H13.93a2.21,2.21,0,0,1-2.21-2.2v-14a2.21,2.21,0,1,1,4.41,0V51L68.78,12a2.2,2.2,0,1,1,2.62,3.54Z"/></g></svg>