<svg xmlns="http://www.w3.org/2000/svg" viewBox="0 0 141.45 139.91"><defs><style>.cls-1{fill:#fa8603;stroke:#fa8603;stroke-miterlimit:10;stroke-width:4px;}</style></defs><g id="Object"><path class="cls-1" d="M131.34,70.43,72.28,11.37a2.35,2.35,0,0,0-3.12,0L10.1,70.43a2.21,2.21,0,0,0,0,3.12,2.25,2.25,0,0,0,3.12,0l12.1-12.1v65.48a2.21,2.21,0,0,0,2.2,2.2H56a2.21,2.21,0,0,0,2.21-2.2V86.64h25v40.29a2.21,2.21,0,0,0,2.21,2.2h28.5a2.21,2.21,0,0,0,2.2-2.2V61.45l12.1,12.1a2.21,2.21,0,1,0,3.12-3.12ZM111.71,57.51v67.21H87.62V84.44a2.21,2.21,0,0,0-2.2-2.21H56a2.21,2.21,0,0,0-2.2,2.21v40.28H29.73V57.51a1.42,1.42,0,0,0-.05-.42l41-41,41,41A1.42,1.42,0,0,0,111.71,57.51Z"/></g></svg>