<svg xmlns="http://www.w3.org/2000/svg" viewBox="0 0 141.45 139.91"><defs><style>.cls-1{fill:#fa8603;stroke:#fa8603;stroke-miterlimit:10;stroke-width:3px;}</style></defs><g id="Object"><path class="cls-1" d="M90.86,49.75A2.21,2.21,0,0,1,88.66,52H15.92a2.21,2.21,0,1,1,0-4.41H88.66A2.21,2.21,0,0,1,90.86,49.75Z"/><path class="cls-1" d="M90.86,78.74A2.21,2.21,0,0,1,88.66,81H15.92a2.21,2.21,0,1,1,0-4.41H88.66A2.21,2.21,0,0,1,90.86,78.74Z"/><path class="cls-1" d="M90.86,107.74a2.21,2.21,0,0,1-2.2,2.2H15.92a2.21,2.21,0,1,1,0-4.41H88.66A2.21,2.21,0,0,1,90.86,107.74Z"/><path class="cls-1" d="M110.41,78.74A2.21,2.21,0,0,1,108.2,81H104a2.21,2.21,0,0,1,0-4.41h4.21A2.21,2.21,0,0,1,110.41,78.74Z"/><path class="cls-1" d="M110.41,107.74a2.21,2.21,0,0,1-2.21,2.2H104a2.21,2.21,0,0,1,0-4.41h4.21A2.21,2.21,0,0,1,110.41,107.74Z"/><path class="cls-1" d="M127.74,32.19a2.2,2.2,0,0,1-.65,1.55L108.31,52.4a2.21,2.21,0,0,1-3.06.05l-4.24-4a2.2,2.2,0,0,1,1.43-3.81,2.11,2.11,0,0,1,1.58.59l2.69,2.52L124,30.61a2.18,2.18,0,0,1,1.55-.64,2.44,2.44,0,0,1,1.57.65A2.22,2.22,0,0,1,127.74,32.19Z"/></g></svg>