<svg xmlns="http://www.w3.org/2000/svg" viewBox="0 0 141.45 139.91"><defs><style>.cls-1{fill:#fa8603;stroke:#fa8603;stroke-miterlimit:10;stroke-width:3px;}</style></defs><g id="Object"><path class="cls-1" d="M124.91,58.71h-5.58a5.28,5.28,0,0,1-5-3.59A45.7,45.7,0,0,0,112,49.56a5.13,5.13,0,0,1,.93-5.93l4-4a5,5,0,0,0,0-7.08l-8.83-8.83a5,5,0,0,0-7.08,0L97,27.78a5.15,5.15,0,0,1-5.91.94,45.52,45.52,0,0,0-5.56-2.3A5.22,5.22,0,0,1,82,21.5V15.77a5,5,0,0,0-5-5H64.48a5,5,0,0,0-5,5V21.5a5.22,5.22,0,0,1-3.56,4.92,45.52,45.52,0,0,0-5.56,2.3,5.15,5.15,0,0,1-5.91-.94l-4.09-4.09a5.08,5.08,0,0,0-7.07,0l-8.83,8.83a5,5,0,0,0,0,7.07l4,4a5.13,5.13,0,0,1,.94,5.93,45.7,45.7,0,0,0-2.33,5.56,5.29,5.29,0,0,1-5,3.59H16.54a5,5,0,0,0-5,5V76.2a5,5,0,0,0,5,5H22a5.28,5.28,0,0,1,5,3.62,47,47,0,0,0,2.34,5.65,5.15,5.15,0,0,1-.94,5.91l-3.94,3.94a5,5,0,0,0,0,7.07l8.83,8.83a5.08,5.08,0,0,0,7.07,0l3.89-3.89a5.13,5.13,0,0,1,5.92-.93,46.61,46.61,0,0,0,5.66,2.36,5.37,5.37,0,0,1,3.65,5.06v5.32a5,5,0,0,0,5,5H77a5,5,0,0,0,5-5v-5.32a5.37,5.37,0,0,1,3.65-5.06,45.82,45.82,0,0,0,5.65-2.36,5.11,5.11,0,0,1,5.92.93l3.89,3.89a5,5,0,0,0,7.08,0l8.83-8.83a5,5,0,0,0,0-7.07l-3.94-3.94a5.13,5.13,0,0,1-1-5.91,44.21,44.21,0,0,0,2.34-5.65,5.29,5.29,0,0,1,5-3.62h5.48a5,5,0,0,0,5-5V63.71A5,5,0,0,0,124.91,58.71Zm.5,17.49a.5.5,0,0,1-.5.51h-5.48a9.78,9.78,0,0,0-9.25,6.67,41.43,41.43,0,0,1-2.11,5.1,9.64,9.64,0,0,0,1.8,11.08l3.94,3.94a.47.47,0,0,1,.15.35.49.49,0,0,1-.15.36L105,113a.5.5,0,0,1-.71,0l-3.89-3.89a9.65,9.65,0,0,0-11.12-1.78,41.15,41.15,0,0,1-5.09,2.13,9.86,9.86,0,0,0-6.7,9.32v5.32a.5.5,0,0,1-.5.5H64.48a.5.5,0,0,1-.5-.5v-5.32a9.87,9.87,0,0,0-6.7-9.32,41.28,41.28,0,0,1-5.1-2.13,9.74,9.74,0,0,0-4.33-1,9.52,9.52,0,0,0-6.78,2.8L37.18,113a.48.48,0,0,1-.35.14.51.51,0,0,1-.36-.14l-8.83-8.83a.49.49,0,0,1-.15-.36.47.47,0,0,1,.15-.35l3.94-3.94a9.64,9.64,0,0,0,1.8-11.08,41.43,41.43,0,0,1-2.11-5.1A9.78,9.78,0,0,0,22,76.71H16.54a.5.5,0,0,1-.5-.51V63.71a.5.5,0,0,1,.5-.5h5.57a9.79,9.79,0,0,0,9.24-6.63,42.18,42.18,0,0,1,2.11-5,9.64,9.64,0,0,0-1.78-11.12l-4-4a.47.47,0,0,1-.15-.35.49.49,0,0,1,.15-.36l8.83-8.83a.56.56,0,0,1,.71,0L41.27,31a9.62,9.62,0,0,0,11.08,1.8,39.65,39.65,0,0,1,5-2.08A9.72,9.72,0,0,0,64,21.5V15.77a.5.5,0,0,1,.5-.5H77a.5.5,0,0,1,.5.5V21.5a9.71,9.71,0,0,0,6.61,9.18,43.79,43.79,0,0,1,5,2.07A9.62,9.62,0,0,0,100.18,31l4.09-4.09a.47.47,0,0,1,.35-.15.49.49,0,0,1,.36.15l8.83,8.84a.45.45,0,0,1,.15.35.47.47,0,0,1-.15.35l-4,4A9.63,9.63,0,0,0,108,51.57a40.52,40.52,0,0,1,2.1,5,9.81,9.81,0,0,0,9.24,6.63h5.58a.5.5,0,0,1,.5.5Z"/><path class="cls-1" d="M70.72,36.65A33.31,33.31,0,1,0,104,70,33.34,33.34,0,0,0,70.72,36.65Zm0,62.11A28.81,28.81,0,1,1,99.53,70,28.83,28.83,0,0,1,70.72,98.76Z"/></g></svg>