<svg xmlns="http://www.w3.org/2000/svg" viewBox="0 0 141.45 139.91"><defs><style>.cls-1{fill:#fa8603;}</style></defs><g id="Object"><path class="cls-1" d="M65.19,129.17a54.13,54.13,0,0,1,0-108.25,1.61,1.61,0,0,1,1.61,1.6v3.21a1.61,1.61,0,0,1-1.61,1.6A47.72,47.72,0,1,0,112.92,75a1.6,1.6,0,0,1,1.59-1.6h3.22a1.6,1.6,0,0,1,1.6,1.6A54.2,54.2,0,0,1,65.19,129.17Z"/><path class="cls-1" d="M65.2,21.92a.6.6,0,0,1,.6.6v3.21a.6.6,0,0,1-.6.6A48.72,48.72,0,1,0,113.92,75a.6.6,0,0,1,.6-.6h3.21a.6.6,0,0,1,.6.6A53.13,53.13,0,1,1,65.2,21.92m0-2A55.13,55.13,0,1,0,120.33,75a2.61,2.61,0,0,0-2.6-2.6h-3.21a2.6,2.6,0,0,0-2.6,2.6A46.72,46.72,0,1,1,65.2,28.33a2.6,2.6,0,0,0,2.6-2.6V22.52a2.61,2.61,0,0,0-2.6-2.6Z"/><path class="cls-1" d="M63.59,79.13A1.6,1.6,0,0,1,62,77.53V12.34a1.6,1.6,0,0,1,1.59-1.6h1.6a65.19,65.19,0,0,1,65.19,65.18v1.61a1.6,1.6,0,0,1-1.6,1.6Zm60.29-6.41A58.77,58.77,0,0,0,68.4,17.24V72.72Z"/><path class="cls-1" d="M65.2,11.74a64.19,64.19,0,0,1,64.18,64.18v1.61a.6.6,0,0,1-.6.6H63.6a.6.6,0,0,1-.6-.6V12.34a.6.6,0,0,1,.6-.6h1.6m2.2,62h57.53A59.77,59.77,0,0,0,67.4,16.19V73.72m-2.2-64H63.6a2.6,2.6,0,0,0-2.6,2.6V77.53a2.59,2.59,0,0,0,2.6,2.6h65.18a2.6,2.6,0,0,0,2.6-2.6V75.92A66.2,66.2,0,0,0,65.2,9.74Zm4.2,62V18.3a57.8,57.8,0,0,1,53.42,53.42Z"/></g></svg>