<svg id="Layer_1" data-name="Layer 1" xmlns="http://www.w3.org/2000/svg" viewBox="0 0 810 304"><defs><style>.cls-1{fill:#fff;}</style></defs><path class="cls-1" d="M226.68,45.88c26.55,0,53.1-.14,79.65,0,26.25.18,39.89,17.75,33.45,43q-12.3,48.18-24.88,96.27c-6.3,23.88-19.3,34.05-43.8,34.13q-69,.24-138,0c-25.6-.12-41.32-12.92-47-38-6.21-27.6-12.74-55.16-17.81-83C64,74.8,53.71,56,33.26,43a98.47,98.47,0,0,1-12.59-9.72c-4.54-4-5.48-9.21-2-14.29s9.22-6.47,14.06-3.23c24.95,16.67,49,34.7,54.09,67,1.95,12.31,7.06,15.23,19,15,46.45-.75,92.92-.32,139.37-.29a93,93,0,0,1,11.93.39c6,.76,9.81,4.19,9.84,10.49s-3.75,9.74-9.84,10.36a118.29,118.29,0,0,1-11.92.34c-45.13,0-90.26-.12-135.39.23-4.58,0-12.5-4.22-13.18,5.64-.9,13.1,4.67,21.59,14,21.91,3.09.11,6.19,0,9.29,0,36.28,0,72.57-.32,108.84.25,9.35.15,24.89-5.59,24.51,11.11-.37,16.42-15.83,10.29-25.17,10.47-34.06.65-68.13.25-102.2.25a80,80,0,0,1-9.29,0c-10.44-1.18-11,4.31-8.18,12,3.95,10.68,11.75,16.58,23.13,16.62q71,.24,142,.06c10.8,0,17.22-5.9,19.85-16.11,8.14-31.68,16.36-63.33,24.28-95.06C321.49,71.22,318.9,68,303.48,68q-77-.13-154,0c-3.54,0-7.09,0-10.62-.09-7.15-.3-12.18-3.66-12.18-11.14C126.7,49,131.91,46,139.08,46c3.09,0,6.19-.07,9.29-.07Q187.52,45.86,226.68,45.88Z"/><path class="cls-1" d="M288.3,262.4a27.51,27.51,0,1,1-27.68-27.72A27.69,27.69,0,0,1,288.3,262.4Z"/><path class="cls-1" d="M145.85,234.66c15,0,27.87,13.09,27.69,28-.18,14.41-12.67,27-27.15,27.25-15.06.3-28-12.3-28.23-27.41S130.81,234.64,145.85,234.66Z"/><path class="cls-1" d="M465.43,135.77a8.34,8.34,0,0,1-2.59,6.21,9,9,0,0,1-12.54,0,8.35,8.35,0,0,1-2.6-6.21V90.05a.69.69,0,0,0-.57-.76.68.68,0,0,0-.82.51l-20.14,48.89q-3,5.82-8.87,5.82t-8.86-5.82l-20.27-49a.67.67,0,0,0-.82-.38.69.69,0,0,0-.57.76v45.72a8.38,8.38,0,0,1-2.59,6.21,9,9,0,0,1-12.54,0,8.35,8.35,0,0,1-2.6-6.21V66.49a12.12,12.12,0,0,1,12.16-12.16q6.84,0,10.38,6.84l25.08,58.39c.42.59.84.59,1.27,0L443,61.17q3.54-6.84,10.38-6.84a11.72,11.72,0,0,1,8.49,3.49,11.52,11.52,0,0,1,3.54,8.55Z"/><path class="cls-1" d="M528,129.19a7.22,7.22,0,1,1,0,14.44H490.13v-.13q-6.58-.63-7.22-7.09V62.31a6.91,6.91,0,0,1,2.15-5.13,7.07,7.07,0,0,1,5.07-2.09H528a6.88,6.88,0,0,1,5.13,2.16A7.19,7.19,0,0,1,528,69.53H500.64V91.7h23.81a6.6,6.6,0,0,1,4.94,2.09,6.93,6.93,0,0,1,2,5,6.93,6.93,0,0,1-7,7H500.64v23.43Z"/><path class="cls-1" d="M611.46,97.9q-5.07,7-15.07,9.63L610.19,131a8.87,8.87,0,0,1-.06,9,8.13,8.13,0,0,1-7.54,4.31,8.87,8.87,0,0,1-7.72-4.43l-17.48-30.91H569v26.47a8.87,8.87,0,0,1-17.73,0V62.31A7.34,7.34,0,0,1,558.65,55h26q10.26,0,17.48,3.54A26.19,26.19,0,0,1,613,68.27a27.35,27.35,0,0,1,3.55,13.8A26.56,26.56,0,0,1,611.46,97.9Zm-16.72-5.7q3.56-3.54,3.55-9.75T594.74,73Q591.2,69.67,584,69.66H569v26h15Q591.19,95.62,594.74,92.2Z"/><path class="cls-1" d="M649.07,59.78a45.72,45.72,0,0,1,22.8-5.7q14.82,0,26,7.6a35.19,35.19,0,0,1,7.72,6.84q3.42,4.56,1.08,9.37a8,8,0,0,1-7.79,4.82H698a8.72,8.72,0,0,1-7.22-3.93,18.62,18.62,0,0,0-6.2-5.57A25.46,25.46,0,0,0,671.75,70a26.14,26.14,0,0,0-13.68,3.55,24.47,24.47,0,0,0-9.37,10.25,33.15,33.15,0,0,0-3.42,15.46,32.79,32.79,0,0,0,3.42,15.32,23.42,23.42,0,0,0,9.37,10.26,25.49,25.49,0,0,0,13.68,3.67,24.63,24.63,0,0,0,12.79-3.29,20.52,20.52,0,0,0,6.2-5.57,8.72,8.72,0,0,1,7.22-3.93h1a8.06,8.06,0,0,1,7.79,4.81,8.24,8.24,0,0,1-1.08,9.25,34.08,34.08,0,0,1-7.73,7q-11.15,7.59-26.09,7.59a45,45,0,0,1-22.8-5.82,41.19,41.19,0,0,1-16.08-16,45.56,45.56,0,0,1-6-23.3,46.23,46.23,0,0,1,6-23.43A42.13,42.13,0,0,1,649.07,59.78Z"/><path class="cls-1" d="M737,127l-4.05,11.78q-2.79,6-8.36,5.95a8.16,8.16,0,0,1-7.09-3.6,9,9,0,0,1-1.14-8.17l24.82-69.16q4.19-9.75,13.55-9.75t13.43,9.75L793,133a8.87,8.87,0,0,1-1.14,8.1,8.12,8.12,0,0,1-7.09,3.67q-5.7,0-8.36-5.95L772.31,127Zm18.36-49.26c-.5-.68-1-.68-1.39,0l-12.16,35.08h25.71Z"/><path class="cls-1" d="M436,161.69a7.65,7.65,0,0,1-7.6,7.6h-18.6v70.45a9,9,0,0,1-2.78,6.58,9.51,9.51,0,0,1-13.44,0,9,9,0,0,1-2.78-6.58V169.29H372.2a7.65,7.65,0,0,1-7.61-7.6,7.47,7.47,0,0,1,2.24-5.49A7.3,7.3,0,0,1,372.2,154h56.19a7.28,7.28,0,0,1,5.36,2.24A7.47,7.47,0,0,1,436,161.69Z"/><path class="cls-1" d="M514.3,199.7q-5.43,7.45-16.15,10.31L513,235.12a9.55,9.55,0,0,1-.07,9.64,8.71,8.71,0,0,1-8.08,4.62,9.51,9.51,0,0,1-8.28-4.76l-18.73-33.11h-9v28.36a9.5,9.5,0,1,1-19,0V161.56a7.89,7.89,0,0,1,7.87-7.88h27.83q11,0,18.73,3.81a28,28,0,0,1,11.67,10.45,29.19,29.19,0,0,1,3.8,14.79A28.53,28.53,0,0,1,514.3,199.7Zm-17.91-6.11q3.8-3.79,3.8-10.45T496.39,173q-3.81-3.53-11.54-3.53h-16v27.82h16Q492.59,197.25,496.39,193.59Z"/><path class="cls-1" d="M550.81,230.92l-4.34,12.62q-3,6.38-9,6.38a8.75,8.75,0,0,1-7.6-3.87,9.6,9.6,0,0,1-1.22-8.76l26.6-74.1q4.49-10.45,14.53-10.46t14.38,10.46l26.61,74.1a9.57,9.57,0,0,1-1.22,8.69,8.73,8.73,0,0,1-7.61,3.94q-6.11,0-9-6.38l-4.35-12.62Zm19.69-52.8q-.82-1.1-1.5,0l-13,37.59h27.56Z"/><path class="cls-1" d="M644.74,158.84a49,49,0,0,1,24.43-6.11q15.89,0,27.82,8.15a37.59,37.59,0,0,1,8.28,7.33q3.68,4.89,1.16,10a8.62,8.62,0,0,1-8.35,5.16h-1a9.32,9.32,0,0,1-7.74-4.21,20,20,0,0,0-6.65-6A27.28,27.28,0,0,0,669,169.84a28,28,0,0,0-14.65,3.8,26.21,26.21,0,0,0-10,11,35.53,35.53,0,0,0-3.66,16.56,35.17,35.17,0,0,0,3.66,16.42,25.16,25.16,0,0,0,10,11A27.34,27.34,0,0,0,669,232.54,26.45,26.45,0,0,0,682.74,229a22,22,0,0,0,6.65-6,9.34,9.34,0,0,1,7.74-4.2h1.09a8.61,8.61,0,0,1,8.34,5.15,8.82,8.82,0,0,1-1.15,9.91,36,36,0,0,1-8.28,7.47q-11.94,8.15-28,8.14a48.14,48.14,0,0,1-24.43-6.24,44.14,44.14,0,0,1-17.24-17.1,48.89,48.89,0,0,1-6.38-25,49.61,49.61,0,0,1,6.38-25.11A45.11,45.11,0,0,1,644.74,158.84Z"/><path class="cls-1" d="M742.6,206.48v33.39a9.26,9.26,0,0,1-2.72,6.72,8.91,8.91,0,0,1-6.65,2.79,9.51,9.51,0,0,1-9.5-9.51v-77.5a9,9,0,0,1,2.78-6.58,9.19,9.19,0,0,1,6.72-2.78,8.94,8.94,0,0,1,6.65,2.78,9.11,9.11,0,0,1,2.72,6.58v34.07l32.85-40.18a8.73,8.73,0,0,1,6.78-3.25,8.05,8.05,0,0,1,7.87,4.81q2.31,4.83-1.08,9.57l-28.1,33.53L789,234.31q3.53,4.89,1.15,10a8.36,8.36,0,0,1-8.21,5.09,9.15,9.15,0,0,1-7.06-3.4Z"/></svg>